<mxfile host="Electron" modified="2024-02-06T10:54:42.151Z" agent="Mozilla/5.0 (Macintosh; Intel Mac OS X 10_15_7) AppleWebKit/537.36 (KHTML, like Gecko) draw.io/22.0.3 Chrome/114.0.5735.289 Electron/25.8.4 Safari/537.36" etag="yLiXeYIXretBS0NZW_NT" version="22.0.3" type="device">
  <diagram name="ページ1" id="OdGrnnWMBY12sMeTij4F">
    <mxGraphModel dx="3227" dy="1099" grid="1" gridSize="10" guides="1" tooltips="1" connect="1" arrows="1" fold="1" page="1" pageScale="1" pageWidth="827" pageHeight="1169" math="0" shadow="0">
      <root>
        <mxCell id="0" />
        <mxCell id="1" parent="0" />
        <mxCell id="LeTVG7tr6Lj858jG1GWk-5" style="edgeStyle=orthogonalEdgeStyle;rounded=0;orthogonalLoop=1;jettySize=auto;html=1;" edge="1" parent="1" source="LeTVG7tr6Lj858jG1GWk-1" target="LeTVG7tr6Lj858jG1GWk-4">
          <mxGeometry relative="1" as="geometry" />
        </mxCell>
        <mxCell id="LeTVG7tr6Lj858jG1GWk-18" style="edgeStyle=orthogonalEdgeStyle;rounded=0;orthogonalLoop=1;jettySize=auto;html=1;entryX=0;entryY=0.5;entryDx=0;entryDy=0;" edge="1" parent="1" source="LeTVG7tr6Lj858jG1GWk-1" target="LeTVG7tr6Lj858jG1GWk-13">
          <mxGeometry relative="1" as="geometry" />
        </mxCell>
        <mxCell id="LeTVG7tr6Lj858jG1GWk-1" value="" style="sketch=0;html=1;aspect=fixed;strokeColor=none;shadow=0;fillColor=#3B8DF1;verticalAlign=top;labelPosition=center;verticalLabelPosition=bottom;shape=mxgraph.gcp2.phone_android" vertex="1" parent="1">
          <mxGeometry x="-760" y="420" width="61.6" height="110" as="geometry" />
        </mxCell>
        <mxCell id="LeTVG7tr6Lj858jG1GWk-3" value="App" style="text;html=1;align=center;verticalAlign=middle;resizable=0;points=[];autosize=1;strokeColor=none;fillColor=none;" vertex="1" parent="1">
          <mxGeometry x="-750" y="538" width="40" height="30" as="geometry" />
        </mxCell>
        <mxCell id="LeTVG7tr6Lj858jG1GWk-4" value="" style="sketch=0;pointerEvents=1;shadow=0;dashed=0;html=1;strokeColor=none;fillColor=#434445;aspect=fixed;labelPosition=center;verticalLabelPosition=bottom;verticalAlign=top;align=center;outlineConnect=0;shape=mxgraph.vvd.document;" vertex="1" parent="1">
          <mxGeometry x="-930" y="538" width="36.5" height="50" as="geometry" />
        </mxCell>
        <mxCell id="LeTVG7tr6Lj858jG1GWk-6" value="撮影" style="text;html=1;align=center;verticalAlign=middle;resizable=0;points=[];autosize=1;strokeColor=none;fillColor=none;" vertex="1" parent="1">
          <mxGeometry x="-855" y="478" width="50" height="30" as="geometry" />
        </mxCell>
        <mxCell id="LeTVG7tr6Lj858jG1GWk-8" style="edgeStyle=orthogonalEdgeStyle;rounded=0;orthogonalLoop=1;jettySize=auto;html=1;" edge="1" parent="1" source="LeTVG7tr6Lj858jG1GWk-7" target="LeTVG7tr6Lj858jG1GWk-4">
          <mxGeometry relative="1" as="geometry" />
        </mxCell>
        <mxCell id="LeTVG7tr6Lj858jG1GWk-27" style="edgeStyle=orthogonalEdgeStyle;rounded=0;orthogonalLoop=1;jettySize=auto;html=1;" edge="1" parent="1" source="LeTVG7tr6Lj858jG1GWk-7" target="LeTVG7tr6Lj858jG1GWk-21">
          <mxGeometry relative="1" as="geometry" />
        </mxCell>
        <mxCell id="LeTVG7tr6Lj858jG1GWk-28" value="確認" style="edgeLabel;html=1;align=center;verticalAlign=middle;resizable=0;points=[];" vertex="1" connectable="0" parent="LeTVG7tr6Lj858jG1GWk-27">
          <mxGeometry x="-0.8469" relative="1" as="geometry">
            <mxPoint x="-1" as="offset" />
          </mxGeometry>
        </mxCell>
        <mxCell id="LeTVG7tr6Lj858jG1GWk-7" value="Actor" style="shape=umlActor;verticalLabelPosition=bottom;verticalAlign=top;html=1;outlineConnect=0;" vertex="1" parent="1">
          <mxGeometry x="-745" y="620" width="30" height="60" as="geometry" />
        </mxCell>
        <mxCell id="LeTVG7tr6Lj858jG1GWk-9" value="確認" style="text;html=1;align=center;verticalAlign=middle;resizable=0;points=[];autosize=1;strokeColor=none;fillColor=none;" vertex="1" parent="1">
          <mxGeometry x="-855" y="648" width="50" height="30" as="geometry" />
        </mxCell>
        <mxCell id="LeTVG7tr6Lj858jG1GWk-10" style="edgeStyle=orthogonalEdgeStyle;rounded=0;orthogonalLoop=1;jettySize=auto;html=1;entryX=0.504;entryY=0.957;entryDx=0;entryDy=0;entryPerimeter=0;" edge="1" parent="1" source="LeTVG7tr6Lj858jG1GWk-7" target="LeTVG7tr6Lj858jG1GWk-3">
          <mxGeometry relative="1" as="geometry" />
        </mxCell>
        <mxCell id="LeTVG7tr6Lj858jG1GWk-11" value="撮影、入力" style="edgeLabel;html=1;align=center;verticalAlign=middle;resizable=0;points=[];" vertex="1" connectable="0" parent="LeTVG7tr6Lj858jG1GWk-10">
          <mxGeometry x="-0.2354" y="-3" relative="1" as="geometry">
            <mxPoint as="offset" />
          </mxGeometry>
        </mxCell>
        <mxCell id="LeTVG7tr6Lj858jG1GWk-13" value="kujira-treasuer&lt;br&gt;API/UI" style="rounded=1;whiteSpace=wrap;html=1;" vertex="1" parent="1">
          <mxGeometry x="-580" y="445" width="120" height="60" as="geometry" />
        </mxCell>
        <mxCell id="LeTVG7tr6Lj858jG1GWk-14" value="&lt;br&gt;Image Storage" style="strokeWidth=2;html=1;shape=mxgraph.flowchart.database;whiteSpace=wrap;" vertex="1" parent="1">
          <mxGeometry x="-480" y="580" width="60" height="60" as="geometry" />
        </mxCell>
        <mxCell id="LeTVG7tr6Lj858jG1GWk-15" value="DataStore" style="strokeWidth=2;html=1;shape=mxgraph.flowchart.database;whiteSpace=wrap;" vertex="1" parent="1">
          <mxGeometry x="-620" y="580" width="60" height="60" as="geometry" />
        </mxCell>
        <mxCell id="LeTVG7tr6Lj858jG1GWk-25" style="edgeStyle=orthogonalEdgeStyle;rounded=0;orthogonalLoop=1;jettySize=auto;html=1;" edge="1" parent="1" source="LeTVG7tr6Lj858jG1GWk-19" target="LeTVG7tr6Lj858jG1GWk-13">
          <mxGeometry relative="1" as="geometry" />
        </mxCell>
        <mxCell id="LeTVG7tr6Lj858jG1GWk-19" value="" style="fontColor=#0066CC;verticalAlign=top;verticalLabelPosition=bottom;labelPosition=center;align=center;html=1;outlineConnect=0;fillColor=#CCCCCC;strokeColor=#6881B3;gradientColor=none;gradientDirection=north;strokeWidth=2;shape=mxgraph.networks.pc;" vertex="1" parent="1">
          <mxGeometry x="-250" y="443" width="100" height="70" as="geometry" />
        </mxCell>
        <mxCell id="LeTVG7tr6Lj858jG1GWk-21" value="Management" style="text;html=1;align=center;verticalAlign=middle;resizable=0;points=[];autosize=1;strokeColor=none;fillColor=none;" vertex="1" parent="1">
          <mxGeometry x="-240" y="513" width="90" height="30" as="geometry" />
        </mxCell>
        <mxCell id="LeTVG7tr6Lj858jG1GWk-22" value="&lt;font style=&quot;font-size: 36px;&quot;&gt;&lt;u&gt;全体図&lt;/u&gt;&lt;/font&gt;" style="text;html=1;align=center;verticalAlign=middle;resizable=0;points=[];autosize=1;strokeColor=none;fillColor=none;" vertex="1" parent="1">
          <mxGeometry x="-930" y="330" width="130" height="60" as="geometry" />
        </mxCell>
        <mxCell id="LeTVG7tr6Lj858jG1GWk-23" style="edgeStyle=orthogonalEdgeStyle;rounded=0;orthogonalLoop=1;jettySize=auto;html=1;entryX=0.5;entryY=0;entryDx=0;entryDy=0;entryPerimeter=0;" edge="1" parent="1" source="LeTVG7tr6Lj858jG1GWk-13" target="LeTVG7tr6Lj858jG1GWk-15">
          <mxGeometry relative="1" as="geometry" />
        </mxCell>
        <mxCell id="LeTVG7tr6Lj858jG1GWk-24" style="edgeStyle=orthogonalEdgeStyle;rounded=0;orthogonalLoop=1;jettySize=auto;html=1;entryX=0.5;entryY=0;entryDx=0;entryDy=0;entryPerimeter=0;" edge="1" parent="1" source="LeTVG7tr6Lj858jG1GWk-13" target="LeTVG7tr6Lj858jG1GWk-14">
          <mxGeometry relative="1" as="geometry" />
        </mxCell>
        <mxCell id="LeTVG7tr6Lj858jG1GWk-26" value="&lt;font style=&quot;font-size: 36px;&quot;&gt;&lt;u&gt;AWS構成素案&lt;/u&gt;&lt;/font&gt;" style="text;html=1;align=center;verticalAlign=middle;resizable=0;points=[];autosize=1;strokeColor=none;fillColor=none;" vertex="1" parent="1">
          <mxGeometry x="-980" y="810" width="250" height="60" as="geometry" />
        </mxCell>
        <mxCell id="LeTVG7tr6Lj858jG1GWk-35" style="edgeStyle=orthogonalEdgeStyle;rounded=0;orthogonalLoop=1;jettySize=auto;html=1;" edge="1" parent="1" source="LeTVG7tr6Lj858jG1GWk-29" target="LeTVG7tr6Lj858jG1GWk-31">
          <mxGeometry relative="1" as="geometry" />
        </mxCell>
        <mxCell id="LeTVG7tr6Lj858jG1GWk-29" value="" style="sketch=0;points=[[0,0,0],[0.25,0,0],[0.5,0,0],[0.75,0,0],[1,0,0],[0,1,0],[0.25,1,0],[0.5,1,0],[0.75,1,0],[1,1,0],[0,0.25,0],[0,0.5,0],[0,0.75,0],[1,0.25,0],[1,0.5,0],[1,0.75,0]];outlineConnect=0;fontColor=#232F3E;fillColor=#E7157B;strokeColor=#ffffff;dashed=0;verticalLabelPosition=bottom;verticalAlign=top;align=center;html=1;fontSize=12;fontStyle=0;aspect=fixed;shape=mxgraph.aws4.resourceIcon;resIcon=mxgraph.aws4.api_gateway;" vertex="1" parent="1">
          <mxGeometry x="-860" y="940" width="78" height="78" as="geometry" />
        </mxCell>
        <mxCell id="LeTVG7tr6Lj858jG1GWk-30" value="" style="outlineConnect=0;dashed=0;verticalLabelPosition=bottom;verticalAlign=top;align=center;html=1;shape=mxgraph.aws3.certificate_manager_2;fillColor=#759C3E;gradientColor=none;" vertex="1" parent="1">
          <mxGeometry x="-805" y="1106" width="73.5" height="63" as="geometry" />
        </mxCell>
        <mxCell id="LeTVG7tr6Lj858jG1GWk-38" style="edgeStyle=orthogonalEdgeStyle;rounded=0;orthogonalLoop=1;jettySize=auto;html=1;" edge="1" parent="1" source="LeTVG7tr6Lj858jG1GWk-31" target="LeTVG7tr6Lj858jG1GWk-33">
          <mxGeometry relative="1" as="geometry" />
        </mxCell>
        <mxCell id="LeTVG7tr6Lj858jG1GWk-31" value="" style="sketch=0;points=[[0,0,0],[0.25,0,0],[0.5,0,0],[0.75,0,0],[1,0,0],[0,1,0],[0.25,1,0],[0.5,1,0],[0.75,1,0],[1,1,0],[0,0.25,0],[0,0.5,0],[0,0.75,0],[1,0.25,0],[1,0.5,0],[1,0.75,0]];outlineConnect=0;fontColor=#232F3E;fillColor=#ED7100;strokeColor=#ffffff;dashed=0;verticalLabelPosition=bottom;verticalAlign=top;align=center;html=1;fontSize=12;fontStyle=0;aspect=fixed;shape=mxgraph.aws4.resourceIcon;resIcon=mxgraph.aws4.lambda;" vertex="1" parent="1">
          <mxGeometry x="-610" y="940" width="78" height="78" as="geometry" />
        </mxCell>
        <mxCell id="LeTVG7tr6Lj858jG1GWk-32" value="" style="sketch=0;points=[[0,0,0],[0.25,0,0],[0.5,0,0],[0.75,0,0],[1,0,0],[0,1,0],[0.25,1,0],[0.5,1,0],[0.75,1,0],[1,1,0],[0,0.25,0],[0,0.5,0],[0,0.75,0],[1,0.25,0],[1,0.5,0],[1,0.75,0]];outlineConnect=0;fontColor=#232F3E;fillColor=#7AA116;strokeColor=#ffffff;dashed=0;verticalLabelPosition=bottom;verticalAlign=top;align=center;html=1;fontSize=12;fontStyle=0;aspect=fixed;shape=mxgraph.aws4.resourceIcon;resIcon=mxgraph.aws4.efs_standard;" vertex="1" parent="1">
          <mxGeometry x="-680" y="1091" width="78" height="78" as="geometry" />
        </mxCell>
        <mxCell id="LeTVG7tr6Lj858jG1GWk-33" value="" style="sketch=0;points=[[0,0,0],[0.25,0,0],[0.5,0,0],[0.75,0,0],[1,0,0],[0,1,0],[0.25,1,0],[0.5,1,0],[0.75,1,0],[1,1,0],[0,0.25,0],[0,0.5,0],[0,0.75,0],[1,0.25,0],[1,0.5,0],[1,0.75,0]];outlineConnect=0;fontColor=#232F3E;fillColor=#7AA116;strokeColor=#ffffff;dashed=0;verticalLabelPosition=bottom;verticalAlign=top;align=center;html=1;fontSize=12;fontStyle=0;aspect=fixed;shape=mxgraph.aws4.resourceIcon;resIcon=mxgraph.aws4.s3;" vertex="1" parent="1">
          <mxGeometry x="-532" y="1091" width="78" height="78" as="geometry" />
        </mxCell>
        <mxCell id="LeTVG7tr6Lj858jG1GWk-34" value="" style="sketch=0;points=[[0,0,0],[0.25,0,0],[0.5,0,0],[0.75,0,0],[1,0,0],[0,1,0],[0.25,1,0],[0.5,1,0],[0.75,1,0],[1,1,0],[0,0.25,0],[0,0.5,0],[0,0.75,0],[1,0.25,0],[1,0.5,0],[1,0.75,0]];outlineConnect=0;fontColor=#232F3E;fillColor=#8C4FFF;strokeColor=#ffffff;dashed=0;verticalLabelPosition=bottom;verticalAlign=top;align=center;html=1;fontSize=12;fontStyle=0;aspect=fixed;shape=mxgraph.aws4.resourceIcon;resIcon=mxgraph.aws4.cloudfront;" vertex="1" parent="1">
          <mxGeometry x="-860" y="1260" width="78" height="78" as="geometry" />
        </mxCell>
        <mxCell id="LeTVG7tr6Lj858jG1GWk-36" style="edgeStyle=orthogonalEdgeStyle;rounded=0;orthogonalLoop=1;jettySize=auto;html=1;entryX=0.5;entryY=1;entryDx=0;entryDy=0;entryPerimeter=0;" edge="1" parent="1" source="LeTVG7tr6Lj858jG1GWk-30" target="LeTVG7tr6Lj858jG1GWk-29">
          <mxGeometry relative="1" as="geometry" />
        </mxCell>
        <mxCell id="LeTVG7tr6Lj858jG1GWk-37" style="edgeStyle=orthogonalEdgeStyle;rounded=0;orthogonalLoop=1;jettySize=auto;html=1;entryX=0.5;entryY=0;entryDx=0;entryDy=0;entryPerimeter=0;" edge="1" parent="1" source="LeTVG7tr6Lj858jG1GWk-31" target="LeTVG7tr6Lj858jG1GWk-32">
          <mxGeometry relative="1" as="geometry" />
        </mxCell>
        <mxCell id="LeTVG7tr6Lj858jG1GWk-42" style="edgeStyle=orthogonalEdgeStyle;rounded=0;orthogonalLoop=1;jettySize=auto;html=1;" edge="1" parent="1" source="LeTVG7tr6Lj858jG1GWk-39">
          <mxGeometry relative="1" as="geometry">
            <mxPoint x="-820" y="1260" as="targetPoint" />
            <Array as="points">
              <mxPoint x="-881" y="1210" />
              <mxPoint x="-819" y="1210" />
              <mxPoint x="-819" y="1260" />
            </Array>
          </mxGeometry>
        </mxCell>
        <mxCell id="LeTVG7tr6Lj858jG1GWk-39" value="" style="sketch=0;points=[[0,0,0],[0.25,0,0],[0.5,0,0],[0.75,0,0],[1,0,0],[0,1,0],[0.25,1,0],[0.5,1,0],[0.75,1,0],[1,1,0],[0,0.25,0],[0,0.5,0],[0,0.75,0],[1,0.25,0],[1,0.5,0],[1,0.75,0]];outlineConnect=0;fontColor=#232F3E;fillColor=#8C4FFF;strokeColor=#ffffff;dashed=0;verticalLabelPosition=bottom;verticalAlign=top;align=center;html=1;fontSize=12;fontStyle=0;aspect=fixed;shape=mxgraph.aws4.resourceIcon;resIcon=mxgraph.aws4.route_53;" vertex="1" parent="1">
          <mxGeometry x="-920" y="1098.5" width="78" height="78" as="geometry" />
        </mxCell>
        <mxCell id="LeTVG7tr6Lj858jG1GWk-40" style="edgeStyle=orthogonalEdgeStyle;rounded=0;orthogonalLoop=1;jettySize=auto;html=1;entryX=0.5;entryY=0;entryDx=0;entryDy=0;entryPerimeter=0;" edge="1" parent="1" source="LeTVG7tr6Lj858jG1GWk-30" target="LeTVG7tr6Lj858jG1GWk-34">
          <mxGeometry relative="1" as="geometry" />
        </mxCell>
        <mxCell id="LeTVG7tr6Lj858jG1GWk-41" style="edgeStyle=orthogonalEdgeStyle;rounded=0;orthogonalLoop=1;jettySize=auto;html=1;entryX=0.5;entryY=1;entryDx=0;entryDy=0;entryPerimeter=0;" edge="1" parent="1" source="LeTVG7tr6Lj858jG1GWk-39" target="LeTVG7tr6Lj858jG1GWk-29">
          <mxGeometry relative="1" as="geometry" />
        </mxCell>
      </root>
    </mxGraphModel>
  </diagram>
</mxfile>
